<?xml version="1.0" standalone="no"?>
<!DOCTYPE svg PUBLIC "-//W3C//DTD SVG 20010904//EN"
 "http://www.w3.org/TR/2001/REC-SVG-20010904/DTD/svg10.dtd">
<svg version="1.0" xmlns="http://www.w3.org/2000/svg"
 width="260.000000pt" height="260.000000pt" viewBox="0 0 260.000000 260.000000"
 preserveAspectRatio="xMidYMid meet">
<metadata>
Created by potrace 1.11, written by Peter Selinger 2001-2013
</metadata>
<g transform="translate(0.000000,260.000000) scale(0.100000,-0.100000)"
fill="#000000" stroke="none">
<path d="M610 1906 c-3 -3 -21 -7 -40 -9 -44 -5 -57 -10 -149 -54 -144 -69
-257 -200 -313 -362 -34 -96 -33 -276 1 -376 38 -114 126 -229 243 -322 23
-18 89 -49 133 -63 22 -7 44 -15 50 -18 20 -12 64 -15 175 -15 115 1 138 3
175 18 11 4 55 21 98 38 42 16 77 34 77 38 0 5 5 9 11 9 32 0 237 198 256 247
3 7 9 13 13 13 7 0 66 -94 81 -130 12 -28 106 -117 150 -143 24 -14 67 -34 94
-45 28 -10 59 -23 70 -27 29 -12 40 -14 141 -21 296 -21 565 177 639 471 19
76 19 204 0 280 -47 184 -197 360 -362 423 -26 10 -57 22 -68 27 -37 14 -100
20 -210 20 -107 -1 -112 -2 -206 -43 -164 -73 -309 -206 -438 -400 -33 -51
-61 -96 -61 -99 0 -13 -132 -181 -172 -220 -67 -64 -155 -121 -217 -139 -141
-41 -292 24 -363 158 -33 62 -33 204 0 266 71 134 222 199 364 158 55 -16 174
-92 212 -135 28 -30 38 -26 67 27 15 26 52 82 83 125 31 43 54 83 51 88 -24
38 -240 171 -315 193 -55 17 -259 33 -270 22z m1436 -336 c58 -28 115 -84 146
-142 19 -36 23 -58 23 -133 0 -103 -18 -148 -84 -214 -154 -154 -422 -98 -508
106 -35 84 -9 237 50 301 34 37 104 82 150 97 61 20 164 13 223 -15z"/>
</g>
</svg>
