<?xml version="1.0" standalone="no"?>
<!DOCTYPE svg PUBLIC "-//W3C//DTD SVG 20010904//EN"
 "http://www.w3.org/TR/2001/REC-SVG-20010904/DTD/svg10.dtd">
<svg version="1.0" xmlns="http://www.w3.org/2000/svg"
 width="331.000000pt" height="331.000000pt" viewBox="0 0 331.000000 331.000000"
 preserveAspectRatio="xMidYMid meet">
<metadata>
Created by potrace 1.11, written by Peter Selinger 2001-2013
</metadata>
<g transform="translate(0.000000,331.000000) scale(0.100000,-0.100000)"
fill="#000000" stroke="none">
<path d="M1755 2484 c-76 -17 -106 -29 -126 -50 -20 -22 -21 -26 -8 -39 66
-66 341 -15 313 58 -3 8 -15 18 -27 21 -30 9 -128 15 -152 10z"/>
<path d="M2266 2456 c-52 -20 -60 -29 -39 -48 36 -32 165 -26 194 8 32 39 -81
67 -155 40z"/>
<path d="M2693 2366 c-43 -15 -75 -43 -71 -63 2 -9 19 -26 38 -37 29 -17 52
-21 125 -20 91 0 135 13 164 48 20 24 -8 60 -58 75 -49 14 -152 13 -198 -3z"/>
<path d="M1152 2345 c-78 -24 -96 -58 -39 -73 54 -15 169 9 194 40 33 39 -65
60 -155 33z"/>
<path d="M680 2159 c-118 -16 -234 -79 -228 -123 8 -59 221 -57 340 5 33 17
78 60 78 76 0 35 -89 55 -190 42z"/>
<path d="M3015 2124 c-22 -7 -41 -14 -41 -14 -9 -1 -12 -36 -4 -50 22 -42 153
-53 211 -18 83 51 -57 120 -166 82z"/>
<path d="M2990 1831 c-55 -18 -92 -44 -105 -74 -15 -36 -11 -52 22 -88 77 -83
326 -75 387 13 33 47 12 94 -57 130 -32 17 -63 22 -132 25 -49 1 -101 -1 -115
-6z"/>
<path d="M273 1794 c-61 -16 -127 -55 -143 -84 -8 -15 -6 -24 8 -38 16 -16 31
-19 78 -16 33 1 70 5 84 8 46 10 131 58 147 83 15 22 15 26 0 40 -21 21 -107
25 -174 7z"/>
<path d="M341 1469 c-162 -31 -317 -125 -337 -204 -9 -35 0 -52 38 -76 29 -18
44 -20 128 -16 130 7 256 53 339 124 78 66 88 128 27 160 -35 19 -129 24 -195
12z"/>
<path d="M2597 1416 c-66 -24 -96 -56 -97 -103 -1 -103 235 -125 312 -29 23
27 23 79 1 98 -49 43 -147 58 -216 34z"/>
<path d="M1765 1196 c-148 -36 -262 -145 -248 -236 14 -90 160 -149 294 -119
130 30 246 113 268 193 12 45 -4 95 -41 127 -54 44 -171 60 -273 35z"/>
<path d="M882 1148 c-115 -17 -232 -102 -232 -168 0 -30 29 -69 53 -71 127
-16 238 21 310 100 81 90 14 161 -131 139z"/>
</g>
</svg>
