<?xml version="1.0" encoding="utf-8"?>
<!-- Generator: Adobe Illustrator 15.0.0, SVG Export Plug-In . SVG Version: 6.00 Build 0)  -->
<!DOCTYPE svg PUBLIC "-//W3C//DTD SVG 1.1//EN" "http://www.w3.org/Graphics/SVG/1.1/DTD/svg11.dtd">
<svg version="1.1" id="Layer_1" xmlns="http://www.w3.org/2000/svg" xmlns:xlink="http://www.w3.org/1999/xlink" x="0px" y="0px"
	 width="657px" height="333px" viewBox="0 0 657 333" enable-background="new 0 0 657 333" xml:space="preserve">
<g>
	<path fill="#F08230" d="M29.457,262.7c17.018,0,27.027,12.708,27.027,29.03c0,15.86-10.009,28.568-27.027,28.568
		c-17.016,0-27.025-12.708-27.025-28.568C2.432,275.408,12.441,262.7,29.457,262.7z M29.457,310.133
		c10.858,0,14.94-9.237,14.94-18.401c0-9.625-4.082-18.863-14.94-18.863c-10.854,0-14.937,9.238-14.937,18.863
		C14.52,300.895,18.602,310.133,29.457,310.133z"/>
	<path fill="#F08230" d="M61.643,279.179H72.04v5.08h0.152c2.62-4.231,6.931-6.154,11.859-6.154
		c12.474,0,18.097,10.087,18.097,21.402c0,10.625-5.852,20.562-17.482,20.562c-4.771,0-9.316-2.077-11.934-6.01h-0.154v18.942
		H61.642v-53.822H61.643z M91.21,299.202c0-6.315-2.54-12.857-9.545-12.857c-7.163,0-9.473,6.387-9.473,12.857
		c0,6.467,2.466,12.628,9.551,12.628C88.901,311.83,91.21,305.669,91.21,299.202z"/>
	<path fill="#F08230" d="M117.316,301.742c0.307,6.93,3.695,10.088,9.777,10.088c4.391,0,7.931-2.697,8.624-5.162h9.625
		c-3.077,9.396-9.625,13.4-18.632,13.4c-12.554,0-20.331-8.625-20.331-20.947c0-11.934,8.24-21.017,20.331-21.017
		c13.552,0,20.096,11.392,19.324,23.638H117.316L117.316,301.742z M135.101,294.814c-1.001-5.549-3.386-8.472-8.701-8.472
		c-6.93,0-8.933,5.388-9.084,8.472H135.101z"/>
	<path fill="#F08230" d="M150.578,279.179h10.395v5.543h0.231c2.771-4.465,7.544-6.617,12.165-6.617
		c11.626,0,14.553,6.542,14.553,16.396v24.488h-10.936v-22.483c0-6.547-1.922-9.78-7.007-9.78c-5.926,0-8.47,3.313-8.47,11.397
		v20.866h-10.932v-39.811H150.578z"/>
	<path fill="#F08230" d="M221.649,300.738c0,7.315,5.698,10.168,12.165,10.168c4.236,0,10.703-1.236,10.703-6.854
		c0-5.93-8.24-6.93-16.323-9.088c-8.163-2.153-16.401-5.312-16.401-15.631c0-11.241,10.626-16.634,20.557-16.634
		c11.473,0,22.021,5.006,22.021,17.714h-11.702c-0.385-6.623-5.082-8.32-10.858-8.32c-3.849,0-8.314,1.617-8.314,6.242
		c0,4.232,2.618,4.771,16.401,8.314c4.004,0.998,16.321,3.539,16.321,16.016c0,10.088-7.929,17.634-22.868,17.634
		c-12.165,0-23.562-6.005-23.406-19.562L221.649,300.738L221.649,300.738z"/>
	<path fill="#F08230" d="M288.946,293.191c-0.694-4.463-3.543-6.849-8.086-6.849c-7.007,0-9.316,7.079-9.316,12.935
		c0,5.699,2.231,12.553,9.084,12.553c5.082,0,8.009-3.233,8.701-8.09h10.549c-1.387,10.555-8.701,16.328-19.172,16.328
		c-12.011,0-20.098-8.47-20.098-20.404c0-12.396,7.392-21.56,20.329-21.56c9.394,0,18.017,4.925,18.709,15.087H288.946
		L288.946,293.191z"/>
	<path fill="#F08230" d="M316.894,273.018h-10.932v-9.007h10.932V273.018z M305.962,279.179h10.932v39.811h-10.932V279.179z"/>
	<path fill="#F08230" d="M332.602,301.742c0.309,6.93,3.697,10.088,9.777,10.088c4.39,0,7.933-2.697,8.627-5.162h9.625
		c-3.077,9.396-9.625,13.4-18.632,13.4c-12.554,0-20.331-8.625-20.331-20.947c0-11.934,8.24-21.017,20.331-21.017
		c13.55,0,20.093,11.392,19.324,23.638H332.602L332.602,301.742z M350.388,294.814c-0.998-5.549-3.385-8.472-8.701-8.472
		c-6.93,0-8.93,5.388-9.085,8.472H350.388z"/>
	<path fill="#F08230" d="M365.866,279.179h10.394v5.543h0.231c2.771-4.465,7.546-6.617,12.165-6.617
		c11.628,0,14.557,6.542,14.557,16.396v24.488h-10.937v-22.483c0-6.547-1.924-9.78-7.009-9.78c-5.93,0-8.472,3.313-8.472,11.397
		v20.866h-10.931L365.866,279.179L365.866,279.179z"/>
	<path fill="#F08230" d="M436.707,293.191c-0.692-4.463-3.545-6.849-8.09-6.849c-7.004,0-9.312,7.079-9.312,12.935
		c0,5.699,2.229,12.553,9.081,12.553c5.082,0,8.009-3.233,8.703-8.09h10.547c-1.385,10.555-8.699,16.328-19.169,16.328
		c-12.015,0-20.098-8.47-20.098-20.404c0-12.396,7.391-21.56,20.329-21.56c9.394,0,18.016,4.925,18.708,15.087H436.707
		L436.707,293.191z"/>
	<path fill="#F08230" d="M460.882,301.742c0.306,6.93,3.695,10.088,9.78,10.088c4.388,0,7.928-2.697,8.622-5.162h9.625
		c-3.079,9.396-9.625,13.4-18.634,13.4c-12.553,0-20.329-8.625-20.329-20.947c0-11.934,8.239-21.017,20.329-21.017
		c13.552,0,20.1,11.392,19.325,23.638H460.882L460.882,301.742z M478.671,294.814c-1.005-5.549-3.39-8.472-8.701-8.472
		c-6.935,0-8.933,5.388-9.088,8.472H478.671z"/>
	<path fill="#F08230" d="M554.511,312.754c-4.231,5.468-9.775,7.546-15.087,7.546c-17.021,0-27.027-12.708-27.027-28.568
		c0-16.322,10.006-29.03,27.027-29.03c11.241,0,21.864,6.936,23.177,19.405h-11.554c-1.387-6.08-5.93-9.238-11.623-9.238
		c-10.861,0-14.943,9.238-14.943,18.863c0,9.164,4.082,18.401,14.943,18.401c7.853,0,12.396-4.231,13.089-11.854h-12.165v-9.013
		h23.097v29.723h-7.698L554.511,312.754z"/>
	<path fill="#F08230" d="M570.14,279.179h10.398v7.396h0.151c2.003-5.006,7.396-8.47,12.707-8.47c0.77,0,1.692,0.149,2.386,0.382
		v10.167c-0.998-0.231-2.616-0.387-3.928-0.387c-8.009,0-10.777,5.773-10.777,12.782v17.94h-10.938L570.14,279.179L570.14,279.179z"
		/>
	<path fill="#F08230" d="M609.413,273.018h-10.935v-9.007h10.935V273.018z M598.479,279.179h10.935v39.811h-10.935V279.179z"/>
	<path fill="#F08230" d="M646.065,313.908h-0.154c-2.54,4.312-7.01,6.16-12.092,6.16c-12.008,0-17.862-10.317-17.862-21.328
		c0-10.705,5.93-20.636,17.634-20.636c4.698,0,9.319,1.998,11.859,5.925h-0.076h0.149v-20.019h10.937v54.979h-10.395V313.908z
		 M636.517,286.343c-7.158,0-9.625,6.155-9.625,12.703c0,6.235,2.847,12.783,9.625,12.783c7.235,0,9.395-6.315,9.395-12.858
		C645.91,292.499,643.602,286.343,636.517,286.343z"/>
</g>
<path fill="#F08230" d="M230.723,80.324L-0.5,155.633l231.223,75.313l231.216-75.313L230.723,80.324z M37.755,153.033l192.968-62.85
	l192.959,62.85l-192.959,62.853L37.755,153.033z"/>
<path fill="#F1A52A" d="M230.723,40.16L-0.5,115.472l231.223,75.314l231.216-75.314L230.723,40.16z M37.755,112.868l192.968-62.847
	l192.959,62.847l-192.959,62.854L37.755,112.868z"/>
<path fill="#FECC28" d="M230.723,0L-0.5,75.308l231.223,75.312l231.216-75.312L230.723,0z M37.755,72.711l192.968-62.85
	l192.959,62.85L230.723,135.55L37.755,72.711z"/>
</svg>
