<?xml version="1.0" standalone="no"?>
<!DOCTYPE svg PUBLIC "-//W3C//DTD SVG 20010904//EN"
 "http://www.w3.org/TR/2001/REC-SVG-20010904/DTD/svg10.dtd">
<svg version="1.0" xmlns="http://www.w3.org/2000/svg"
 width="500.000000pt" height="500.000000pt" viewBox="0 0 500.000000 500.000000"
 preserveAspectRatio="xMidYMid meet">
<metadata>
Created by potrace 1.11, written by Peter Selinger 2001-2013
</metadata>
<g transform="translate(0.000000,500.000000) scale(0.100000,-0.100000)"
fill="#000000" stroke="none">
<path d="M2275 3797 c-104 -39 -192 -75 -193 -79 -2 -5 -7 -6 -11 -4 -4 3 -85
-24 -181 -60 -95 -35 -179 -64 -186 -64 -7 0 -19 -6 -26 -12 -7 -7 -20 -14
-28 -15 -21 -4 -1481 -541 -1502 -553 -10 -6 -27 -10 -37 -10 -50 0 -22 -21
72 -55 281 -103 503 -187 510 -194 4 -4 -50 -29 -120 -55 -70 -26 -150 -56
-178 -67 -27 -11 -110 -41 -183 -67 -146 -54 -144 -48 -33 -91 29 -11 57 -18
62 -15 5 3 9 1 9 -3 0 -5 24 -17 52 -27 100 -35 403 -148 406 -151 2 -2 -23
-13 -55 -24 -32 -12 -67 -26 -78 -30 -11 -5 -45 -18 -75 -28 -30 -10 -58 -22
-61 -26 -3 -5 -9 -8 -13 -7 -6 2 -39 -7 -56 -15 -3 -1 -12 -4 -20 -7 -42 -16
-56 -21 -65 -24 -5 -1 -23 -8 -40 -15 -16 -7 -32 -13 -35 -14 -60 -18 -90 -30
-90 -36 0 -5 -6 -6 -14 -3 -8 3 -17 -1 -22 -8 -4 -7 -4 -10 1 -6 4 4 13 4 19
-1 7 -6 56 -26 111 -45 55 -20 109 -40 120 -45 57 -24 77 -31 85 -26 5 3 10 1
12 -3 3 -9 300 -122 328 -125 8 -1 17 -4 20 -8 3 -3 66 -27 140 -53 74 -27
149 -54 165 -61 44 -19 365 -137 378 -139 7 -2 19 -6 27 -9 31 -13 205 -79
215 -81 6 -2 19 -7 30 -11 11 -4 35 -14 54 -21 18 -8 37 -11 42 -8 5 3 9 1 9
-3 0 -8 155 -68 175 -68 6 0 12 -2 15 -6 3 -3 46 -20 95 -38 50 -17 98 -37
108 -42 10 -5 22 -7 27 -4 6 4 10 1 10 -4 0 -6 3 -10 8 -9 4 0 14 -2 22 -5 44
-18 157 -59 170 -62 8 -1 51 11 95 27 44 17 127 47 185 68 156 57 703 259 720
267 23 10 23 10 58 18 17 4 32 12 32 17 0 5 5 6 10 3 6 -3 10 -1 10 5 0 6 4 9
9 6 5 -3 24 0 42 8 38 15 67 25 74 26 3 1 22 8 42 17 21 8 79 30 128 48 50 18
128 47 175 64 47 18 94 34 104 36 11 3 23 10 26 16 4 6 10 10 14 9 4 -1 17 1
29 5 12 4 28 8 34 10 27 7 109 39 119 47 7 5 21 11 33 13 36 7 226 79 229 87
2 5 7 6 12 3 6 -4 31 5 145 50 11 4 25 9 30 11 66 16 61 20 -126 88 -101 37
-193 71 -204 76 -53 22 -134 52 -146 54 -8 1 -34 11 -58 22 l-45 20 295 108
c162 59 304 113 317 120 21 11 19 13 -40 33 -35 12 -101 36 -148 53 -47 17
-132 49 -190 70 -221 82 -229 85 -219 93 2 2 105 41 229 86 124 45 232 85 240
88 8 3 17 7 20 7 8 2 72 27 103 41 l28 12 -58 21 c-282 103 -885 325 -913 337
-19 7 -69 25 -110 40 -41 15 -84 30 -95 35 -30 13 -408 152 -420 154 -5 1 -27
10 -49 19 -21 9 -41 17 -44 17 -5 0 -183 66 -479 176 -94 35 -178 64 -186 64
-9 0 -19 5 -22 10 -11 17 -34 11 -230 -63z m239 -52 c20 -8 36 -12 36 -9 0 4
6 2 13 -3 6 -5 35 -17 62 -27 28 -10 59 -22 70 -27 11 -4 151 -56 310 -115
160 -58 324 -119 365 -134 41 -15 152 -56 245 -90 94 -34 204 -75 245 -90 41
-15 120 -44 175 -64 55 -21 116 -43 135 -51 139 -54 255 -93 262 -89 4 3 8 1
8 -3 0 -5 12 -13 27 -19 25 -9 16 -14 -107 -59 -74 -27 -137 -51 -140 -55 -3
-3 -15 -6 -28 -8 -12 -2 -55 -17 -94 -33 -39 -16 -79 -29 -89 -29 -16 0 -174
56 -528 189 -74 27 -138 48 -143 45 -4 -3 -8 -1 -8 4 0 8 -44 25 -57 23 -2 0
-28 11 -58 25 -31 13 -64 26 -73 28 -9 1 -30 8 -47 15 -93 37 -171 64 -182 64
-7 0 -13 4 -13 8 0 3 -10 9 -22 12 -13 3 -97 33 -188 67 -91 34 -176 65 -189
69 -18 5 -85 -15 -250 -76 -124 -46 -255 -94 -291 -107 -36 -13 -171 -62 -300
-110 -129 -48 -280 -104 -335 -124 -55 -20 -102 -39 -105 -42 -3 -3 -12 -7
-20 -9 -32 -7 -35 -8 -50 -14 -56 -23 -159 -60 -180 -64 -17 -3 -107 25 -260
82 -129 47 -236 87 -237 89 -2 2 79 33 179 70 101 37 199 73 218 81 46 18 73
27 85 31 6 1 39 14 75 27 36 13 178 66 315 117 532 196 580 214 583 222 2 4 7
6 11 3 7 -4 86 23 176 60 11 4 25 9 30 11 38 9 191 69 196 76 3 6 10 9 15 8
15 -2 94 22 100 31 7 12 16 11 58 -6z m105 -511 c69 -25 133 -48 141 -51 8 -4
17 -7 20 -8 3 -1 12 -5 20 -8 25 -11 264 -99 275 -101 6 -2 24 -9 40 -15 17
-7 35 -14 40 -15 6 -2 17 -6 25 -9 8 -4 96 -36 195 -72 99 -36 189 -69 200
-74 50 -22 243 -91 253 -91 31 0 6 -20 -50 -40 -147 -52 -254 -91 -273 -100
-11 -5 -48 -19 -83 -31 l-63 -22 -67 26 c-37 14 -116 44 -177 67 -60 23 -114
43 -120 45 -5 1 -17 5 -25 8 -59 25 -268 98 -282 100 -10 1 -18 4 -18 8 0 4
-63 28 -90 34 -3 0 -26 9 -52 19 l-47 18 -93 -32 c-51 -18 -95 -35 -98 -39 -3
-3 -12 -7 -20 -9 -22 -3 -244 -85 -250 -92 -3 -3 -14 -6 -25 -8 -11 -1 -29 -7
-40 -11 -17 -8 -49 -21 -65 -26 -3 -1 -14 -5 -25 -9 -43 -17 -51 -19 -68 -23
-10 -1 -32 -10 -49 -19 -16 -8 -37 -17 -46 -19 -10 -2 -36 -11 -60 -20 l-43
-18 -239 88 c-132 49 -237 91 -235 95 2 4 82 35 177 71 95 35 175 67 176 71 2
5 7 6 11 3 7 -4 115 32 166 56 11 5 34 13 50 18 17 5 55 19 85 31 88 33 344
128 480 176 69 25 134 49 145 54 61 26 61 26 204 -26z m-99 -436 c3 -3 14 -8
25 -10 11 -1 22 -5 25 -8 9 -9 104 -43 123 -43 9 -1 17 -4 17 -8 0 -7 79 -31
94 -29 5 1 12 -2 15 -8 3 -5 40 -21 81 -36 41 -15 100 -37 130 -48 30 -11 64
-24 75 -28 11 -5 37 -14 57 -21 21 -7 35 -16 30 -20 -4 -4 -52 -24 -107 -43
-55 -20 -109 -40 -120 -46 -11 -5 -40 -16 -65 -24 -25 -8 -129 -46 -233 -84
l-187 -70 -83 30 c-45 16 -91 33 -102 38 -11 4 -47 18 -80 30 -33 12 -69 26
-80 30 -25 10 -148 54 -155 56 -3 0 -12 4 -20 7 -21 9 -151 58 -172 64 -21 6
-24 22 -5 28 6 2 23 9 37 14 14 5 27 9 30 9 3 0 30 10 60 22 30 12 78 30 105
40 69 24 217 79 235 87 8 3 18 7 22 7 3 1 10 4 14 9 4 4 13 7 20 7 7 0 25 5
41 12 15 6 33 12 38 14 6 2 28 10 50 18 40 15 76 17 85 4z m-1441 -184 c113
-42 218 -81 234 -86 15 -6 27 -13 27 -18 0 -4 -60 -29 -132 -55 -73 -27 -135
-52 -136 -57 -2 -4 -7 -6 -12 -3 -4 3 -28 -3 -52 -13 -49 -22 -61 -21 -132 7
-28 11 -103 38 -166 61 -63 23 -124 46 -135 51 -12 6 -27 12 -35 14 -36 8 -60
18 -60 25 0 6 72 34 350 136 19 7 37 13 39 14 2 0 96 -34 210 -76z m3205 6
c104 -39 191 -70 193 -70 1 0 3 -4 3 -10 0 -5 -7 -10 -15 -10 -8 0 -15 -5 -15
-11 0 -5 -4 -8 -9 -4 -5 3 -22 0 -38 -6 -46 -19 -96 -38 -113 -44 -3 -1 -13
-5 -22 -8 -10 -4 -26 -10 -35 -14 -10 -3 -20 -7 -23 -7 -5 -1 -31 -11 -121
-46 -77 -29 -87 -30 -137 -8 -24 10 -48 16 -53 12 -5 -3 -9 -1 -9 4 0 4 -21
15 -47 24 -93 31 -216 77 -221 83 -12 11 -9 12 358 146 58 21 107 38 110 38 3
1 90 -31 194 -69z m-2664 -206 c52 -20 106 -40 120 -44 14 -5 124 -45 245 -90
121 -45 227 -83 235 -84 8 0 17 -4 20 -7 11 -13 237 -89 251 -85 67 23 317
114 579 212 378 140 382 141 412 127 21 -10 41 -17 103 -38 11 -3 20 -5 21 -3
0 2 8 -3 17 -10 9 -8 21 -11 27 -7 5 3 10 2 10 -3 0 -6 12 -13 28 -18 37 -10
22 -5 124 -45 33 -13 29 -25 -12 -34 -17 -4 -30 -10 -30 -15 0 -4 -6 -7 -12
-6 -14 1 -250 -84 -258 -93 -3 -3 -12 -7 -20 -7 -15 -2 -303 -105 -350 -126
-14 -6 -29 -12 -35 -14 -5 -1 -80 -28 -165 -60 -474 -175 -448 -167 -479 -155
-14 5 -56 20 -93 34 -38 14 -68 23 -68 20 0 -3 -6 -1 -13 5 -7 6 -35 18 -62
27 -28 9 -59 20 -70 25 -37 17 -350 132 -365 134 -8 1 -26 8 -39 15 -13 7 -36
17 -50 21 -14 5 -62 22 -106 38 -44 16 -138 51 -210 76 -71 26 -137 50 -145
53 -8 4 -35 14 -60 23 -25 9 -43 21 -41 26 4 7 228 95 341 134 40 13 50 12
150 -26z m-535 -275 c61 -22 125 -46 143 -55 18 -8 37 -12 42 -9 4 3 10 2 12
-3 3 -7 113 -49 678 -256 129 -48 269 -100 311 -116 42 -17 82 -30 91 -30 8 0
18 -3 22 -7 4 -4 26 -15 50 -24 l43 -16 124 45 c68 25 126 49 127 54 2 4 7 6
12 3 4 -3 30 4 56 15 27 10 168 63 314 116 146 54 267 101 270 104 3 3 12 6
20 6 14 2 347 122 395 143 61 27 282 104 295 104 20 -2 373 -132 383 -142 8
-8 -39 -27 -228 -95 -55 -20 -109 -41 -120 -46 -11 -5 -47 -18 -80 -29 -33
-11 -107 -39 -165 -61 -58 -23 -109 -42 -115 -44 -5 -2 -22 -6 -37 -11 -16 -4
-28 -11 -28 -15 0 -4 -6 -7 -12 -6 -14 1 -200 -64 -208 -73 -3 -3 -12 -7 -20
-8 -8 -1 -51 -15 -95 -32 -44 -17 -86 -31 -92 -31 -7 0 -13 -5 -13 -10 0 -6
-3 -9 -7 -8 -12 3 -227 -72 -265 -93 -10 -5 -25 -9 -33 -9 -8 0 -15 -5 -15
-11 0 -5 -4 -8 -9 -5 -4 3 -48 -10 -97 -28 -225 -86 -338 -126 -354 -126 -9 0
-113 36 -230 79 -118 44 -217 78 -222 75 -4 -3 -8 -1 -8 5 0 5 -14 13 -32 16
-18 4 -39 11 -48 16 -34 19 -204 78 -212 73 -4 -3 -8 -1 -8 4 0 6 -12 13 -27
18 -35 9 -33 9 -63 21 -14 6 -144 54 -290 108 -146 53 -281 103 -300 110 -53
20 -533 196 -548 201 -24 7 -3 21 85 53 94 35 170 63 218 82 17 7 39 14 49 16
11 2 22 5 24 8 2 2 27 -5 56 -16 28 -12 101 -39 161 -60z"/>
</g>
</svg>
