<?xml version="1.0" encoding="utf-8"?>
<!-- Generator: Adobe Illustrator 15.0.0, SVG Export Plug-In . SVG Version: 6.00 Build 0)  -->
<!DOCTYPE svg PUBLIC "-//W3C//DTD SVG 1.1//EN" "http://www.w3.org/Graphics/SVG/1.1/DTD/svg11.dtd">
<svg version="1.1" id="Layer_1" xmlns="http://www.w3.org/2000/svg" xmlns:xlink="http://www.w3.org/1999/xlink" x="0px" y="0px"
	 width="331.2px" height="165.6px" viewBox="0 0 331.2 165.6" enable-background="new 0 0 331.2 165.6" xml:space="preserve">
<g>
	<path fill="#ED1C24" d="M277.934,123.523c-7.172,4.345-18.197,4.345-24.289,0.014c-5.924-4.227-4.695-10.806,2.412-14.727
		c6.932-3.822,17.146-3.821,23.117,0C285.316,112.731,284.9,119.312,277.934,123.523z"/>
	<path fill="#ED1C24" d="M92.551,154.709c-10.798,5.253-22.968,5.253-26.761-0.001c-3.674-5.102,2.117-13.066,12.551-17.785
		c10.136-4.591,21.322-4.591,25.346-0.002C107.833,141.642,103.026,149.605,92.551,154.709z"/>
	<path fill="#ED1C24" d="M195.66,159.457c-14.094,8.191-32.755,8.19-40.7,0c-7.581-7.809-1.997-19.735,11.621-26.694
		c13.037-6.653,29.488-6.653,37.525-0.001C212.496,139.721,209.113,151.633,195.66,159.457z"/>
	<path fill="#ED1C24" d="M291.34,12.614c6.334,2.637,6.197,7.069-0.629,9.908c-7.021,2.914-18.109,2.915-24.408,0
		c-6.129-2.839-5.17-7.271,1.811-9.908C274.912,10.045,285.176,10.045,291.34,12.614z"/>
	<path fill="#ED1C24" d="M324.146,67.665c8.719,4.341,9.57,11.745,1.35,16.522c-8.529,4.96-23.008,4.96-31.742,0
		c-8.436-4.777-7.91-12.181,0.617-16.532C302.617,63.457,315.725,63.457,324.146,67.665z"/>
	<path fill="#ED1C24" d="M317.291,36.78c4.994,2.215,5.301,5.905,0.506,8.228c-4.887,2.401-13.061,2.383-18.055,0
		c-4.891-2.332-4.744-6.021,0.146-8.228C304.684,34.603,312.4,34.603,317.291,36.78z"/>
	<path fill="#ED1C24" d="M115.018,14.167c5.954-1.75,12.878-1.75,15.61,0c2.785,1.777,0.25,4.732-5.811,6.604
		c-6.171,1.903-13.464,1.903-16.135,0C106.062,18.899,108.964,15.944,115.018,14.167z"/>
	<path fill="#ED1C24" d="M226.242,3.129c4.684-1.552,11.227-1.552,14.732,0c3.566,1.59,2.736,4.218-1.984,5.875
		c-4.807,1.682-11.672,1.682-15.203,0C220.32,7.348,221.475,4.719,226.242,3.129z"/>
	<path fill="#ED1C24" d="M169.656,1.722c7.65-2.295,17.352-2.295,21.936,0c4.703,2.348,2.432,6.297-5.367,8.811
		c-8.002,2.579-18.428,2.579-22.981,0C158.812,8.012,161.812,4.069,169.656,1.722z"/>
	<path fill="#ED1C24" d="M0.771,127.162c-3.694-6.413,6.289-16.289,21.57-22.053c14.691-5.541,29.732-5.552,34.234,0
		c4.684,5.765-3.471,15.64-18.95,22.053C21.468,133.864,4.611,133.864,0.771,127.162z"/>
	<path fill="#ED1C24" d="M45.835,47.021c-3.442-3.545,2.944-9.071,13.863-12.346c10.617-3.185,22.013-3.176,25.856,0
		c3.959,3.275-1.405,8.8-12.4,12.346C61.814,50.688,49.385,50.688,45.835,47.021z"/>
	<path fill="#ED1C24" d="M12.798,81.081c-2.263-3.118,3.287-8.053,12.128-10.987c8.652-2.885,17.524-2.886,20.044,0
		c2.591,2.933-2.346,7.869-11.253,10.987C24.581,84.296,15.1,84.296,12.798,81.081z"/>
</g>
</svg>
