<?xml version="1.0" encoding="utf-8"?>
<!-- Generator: Adobe Illustrator 15.0.0, SVG Export Plug-In . SVG Version: 6.00 Build 0)  -->
<!DOCTYPE svg PUBLIC "-//W3C//DTD SVG 1.1//EN" "http://www.w3.org/Graphics/SVG/1.1/DTD/svg11.dtd">
<svg version="1.1" id="Layer_1" xmlns="http://www.w3.org/2000/svg" xmlns:xlink="http://www.w3.org/1999/xlink" x="0px" y="0px"
	 width="331.2px" height="165.6px" viewBox="0 0 331.2 165.6" enable-background="new 0 0 331.2 165.6" xml:space="preserve">
<g>
	<g>
		<g>
			<circle fill="#ED1C24" stroke="#ED1C24" stroke-width="0.5" stroke-miterlimit="10" cx="157.254" cy="82.061" r="4.455"/>
			<circle fill="#ED1C24" stroke="#ED1C24" stroke-width="0.5" stroke-miterlimit="10" cx="146.064" cy="62.641" r="4.453"/>
			<path fill="#ED1C24" stroke="#ED1C24" stroke-width="0.5" stroke-miterlimit="10" d="M157.269,64.657
				c2.461,0,4.453,1.993,4.453,4.455c0,2.459-1.992,4.45-4.453,4.45s-4.456-1.991-4.456-4.45
				C152.813,66.649,154.808,64.657,157.269,64.657z"/>
			<circle fill="#ED1C24" stroke="#ED1C24" stroke-width="0.5" stroke-miterlimit="10" cx="134.802" cy="69.155" r="4.455"/>
			<path fill="#ED1C24" stroke="#ED1C24" stroke-width="0.5" stroke-miterlimit="10" d="M146.006,92.984
				c-2.461,0-4.455-1.99-4.455-4.455c0-2.457,1.994-4.455,4.455-4.455c2.457,0,4.454,1.998,4.454,4.455
				C150.46,90.994,148.463,92.984,146.006,92.984z"/>
			<path fill="#ED1C24" stroke="#ED1C24" stroke-width="0.5" stroke-miterlimit="10" d="M134.799,86.516
				c-2.458,0-4.452-1.998-4.452-4.457c0-2.463,1.994-4.451,4.452-4.451c2.464,0,4.457,1.988,4.457,4.451
				C139.256,84.518,137.263,86.516,134.799,86.516z"/>
		</g>
		<g>
			<g>
				<path d="M170.898,64.157v2.714c1.887-2.088,4.029-3.132,6.428-3.132c1.33,0,2.566,0.344,3.711,1.032
					c1.145,0.688,2.016,1.632,2.609,2.831c0.596,1.199,0.895,3.097,0.895,5.695v12.203h-4.223V73.344
					c0-2.181-0.332-3.739-0.998-4.675c-0.664-0.936-1.779-1.403-3.34-1.403c-1.996,0-3.689,0.998-5.082,2.993v15.242h-4.314V64.157
					H170.898z"/>
				<path d="M194.655,64.157v2.714c1.887-2.088,4.029-3.132,6.427-3.132c1.33,0,2.567,0.344,3.712,1.032
					c1.145,0.688,2.015,1.632,2.609,2.831c0.596,1.199,0.894,3.097,0.894,5.695v12.203h-4.223V73.344
					c0-2.181-0.332-3.739-0.997-4.675c-0.665-0.936-1.779-1.403-3.341-1.403c-1.995,0-3.688,0.998-5.081,2.993v15.242h-4.314V64.157
					H194.655z"/>
				<path d="M232.379,75.2h-15.011c0.108,2.042,0.793,3.666,2.054,4.872c1.26,1.207,2.888,1.81,4.883,1.81
					c2.784,0,5.352-0.866,7.703-2.598v4.129c-1.3,0.866-2.587,1.484-3.863,1.855c-1.275,0.372-2.772,0.558-4.489,0.558
					c-2.351,0-4.253-0.487-5.707-1.462s-2.618-2.285-3.491-3.933c-0.874-1.647-1.311-3.553-1.311-5.719
					c0-3.248,0.92-5.889,2.761-7.922c1.84-2.034,4.229-3.051,7.168-3.051c2.831,0,5.089,0.99,6.774,2.969
					c1.686,1.98,2.529,4.632,2.529,7.958V75.2z M217.461,72.671h10.742c-0.108-1.686-0.611-2.985-1.509-3.897
					c-0.896-0.912-2.104-1.369-3.619-1.369s-2.757,0.457-3.724,1.369C218.385,69.687,217.755,70.986,217.461,72.671z"/>
				<path d="M252.957,80.513v4.176c-2.119,0.788-4.192,1.183-6.218,1.183c-3.341,0-6.005-0.989-7.992-2.969
					c-1.988-1.98-2.981-4.632-2.981-7.958c0-3.356,0.967-6.063,2.9-8.12c1.933-2.057,4.478-3.085,7.632-3.085
					c1.099,0,2.084,0.104,2.958,0.313c0.874,0.209,1.953,0.6,3.236,1.172v4.5c-2.134-1.361-4.114-2.042-5.938-2.042
					c-1.902,0-3.465,0.669-4.687,2.007s-1.833,3.043-1.833,5.115c0,2.181,0.661,3.914,1.983,5.197
					c1.323,1.284,3.105,1.926,5.348,1.926C248.989,81.928,250.854,81.457,252.957,80.513z"/>
				<path d="M254.767,67.544l7.935-7.795v4.408h6.751v3.805h-6.751v10.446c0,2.439,1.013,3.659,3.039,3.659
					c1.516,0,3.116-0.502,4.802-1.508v3.943c-1.624,0.913-3.395,1.369-5.312,1.369c-1.934,0-3.542-0.564-4.825-1.693
					c-0.402-0.34-0.735-0.723-0.998-1.148s-0.483-0.982-0.661-1.67c-0.178-0.688-0.267-1.999-0.267-3.933v-9.465h-3.712V67.544z"/>
			</g>
			<g>
				<path d="M80.309,80.513v4.176c-2.119,0.788-4.191,1.183-6.217,1.183c-3.341,0-6.005-0.989-7.993-2.969s-2.981-4.632-2.981-7.958
					c0-3.356,0.966-6.063,2.9-8.12c1.933-2.057,4.478-3.085,7.633-3.085c1.098,0,2.084,0.104,2.958,0.313
					c0.874,0.209,1.952,0.6,3.236,1.172v4.5c-2.134-1.361-4.114-2.042-5.939-2.042c-1.902,0-3.465,0.669-4.687,2.007
					c-1.222,1.338-1.833,3.043-1.833,5.115c0,2.181,0.662,3.914,1.984,5.197c1.322,1.284,3.104,1.926,5.348,1.926
					C76.341,81.928,78.205,81.457,80.309,80.513z"/>
				<path d="M87.292,55.179c0.696,0,1.292,0.24,1.787,0.719c0.495,0.48,0.742,1.067,0.742,1.763c0,0.681-0.248,1.269-0.742,1.763
					c-0.495,0.495-1.09,0.743-1.787,0.743c-0.649,0-1.222-0.251-1.717-0.754s-0.742-1.086-0.742-1.752
					c0-0.649,0.247-1.226,0.742-1.728S86.642,55.179,87.292,55.179z M85.204,64.157h4.223v21.344h-4.223V64.157z"/>
				<path d="M124.736,80.513v4.176c-2.119,0.788-4.191,1.183-6.217,1.183c-3.341,0-6.005-0.989-7.993-2.969
					s-2.981-4.632-2.981-7.958c0-3.356,0.966-6.063,2.9-8.12c1.933-2.057,4.478-3.085,7.633-3.085c1.098,0,2.084,0.104,2.958,0.313
					c0.874,0.209,1.952,0.6,3.236,1.172v4.5c-2.134-1.361-4.114-2.042-5.939-2.042c-1.902,0-3.465,0.669-4.687,2.007
					c-1.222,1.338-1.833,3.043-1.833,5.115c0,2.181,0.662,3.914,1.984,5.197c1.322,1.284,3.104,1.926,5.348,1.926
					C120.769,81.928,122.632,81.457,124.736,80.513z"/>
			</g>
		</g>
	</g>
	<g>
		<path fill="#ED1C24" d="M277.934,123.522c-7.172,4.345-18.197,4.345-24.289,0.014c-5.924-4.227-4.695-10.806,2.412-14.727
			c6.932-3.822,17.146-3.821,23.117,0C285.316,112.73,284.9,119.311,277.934,123.522z"/>
		<path fill="#ED1C24" d="M92.551,154.708c-10.798,5.253-22.968,5.253-26.761-0.001c-3.674-5.102,2.117-13.066,12.551-17.785
			c10.136-4.591,21.322-4.591,25.346-0.002C107.833,141.641,103.026,149.604,92.551,154.708z"/>
		<path fill="#ED1C24" d="M195.66,159.456c-14.094,8.191-32.755,8.19-40.7,0c-7.581-7.809-1.997-19.735,11.621-26.694
			c13.037-6.653,29.488-6.653,37.525-0.001C212.496,139.72,209.113,151.632,195.66,159.456z"/>
		<path fill="#ED1C24" d="M291.34,12.613c6.334,2.637,6.197,7.069-0.629,9.908c-7.021,2.914-18.109,2.915-24.408,0
			c-6.129-2.839-5.17-7.271,1.811-9.908C274.912,10.044,285.176,10.044,291.34,12.613z"/>
		<path fill="#ED1C24" d="M324.146,67.664c8.719,4.341,9.57,11.745,1.35,16.522c-8.529,4.96-23.008,4.96-31.742,0
			c-8.436-4.777-7.91-12.181,0.617-16.532C302.617,63.456,315.725,63.456,324.146,67.664z"/>
		<path fill="#ED1C24" d="M317.291,36.779c4.994,2.215,5.301,5.905,0.506,8.228c-4.887,2.401-13.061,2.383-18.055,0
			c-4.891-2.332-4.744-6.021,0.146-8.228C304.684,34.602,312.4,34.602,317.291,36.779z"/>
		<path fill="#ED1C24" d="M115.018,14.166c5.954-1.75,12.878-1.75,15.61,0c2.785,1.777,0.25,4.732-5.811,6.604
			c-6.171,1.903-13.464,1.903-16.135,0C106.062,18.898,108.964,15.943,115.018,14.166z"/>
		<path fill="#ED1C24" d="M226.242,3.128c4.684-1.552,11.227-1.552,14.732,0c3.566,1.59,2.736,4.218-1.984,5.875
			c-4.807,1.682-11.672,1.682-15.203,0C220.32,7.347,221.475,4.718,226.242,3.128z"/>
		<path fill="#ED1C24" d="M169.656,1.721c7.65-2.295,17.352-2.295,21.936,0c4.703,2.348,2.432,6.297-5.367,8.811
			c-8.002,2.579-18.428,2.579-22.981,0C158.812,8.011,161.812,4.068,169.656,1.721z"/>
		<path fill="#ED1C24" d="M0.771,127.161c-3.694-6.413,6.289-16.289,21.57-22.053c14.691-5.541,29.732-5.552,34.234,0
			c4.684,5.765-3.471,15.64-18.95,22.053C21.468,133.863,4.611,133.863,0.771,127.161z"/>
		<path fill="#ED1C24" d="M45.835,47.02c-3.442-3.545,2.944-9.071,13.863-12.346c10.617-3.185,22.013-3.176,25.856,0
			c3.959,3.275-1.405,8.8-12.4,12.346C61.814,50.688,49.385,50.688,45.835,47.02z"/>
		<path fill="#ED1C24" d="M12.798,81.08c-2.263-3.118,3.287-8.053,12.128-10.987c8.652-2.885,17.524-2.886,20.044,0
			c2.591,2.933-2.346,7.869-11.253,10.987C24.581,84.295,15.1,84.295,12.798,81.08z"/>
	</g>
</g>
</svg>
